<?xml version="1.0" encoding="UTF-8"?>
<!DOCTYPE svg PUBLIC "-//W3C//DTD SVG 1.1//EN" "http://www.w3.org/Graphics/SVG/1.1/DTD/svg11.dtd">
<!-- Creator: CorelDRAW X7 -->
<svg xmlns="http://www.w3.org/2000/svg" xml:space="preserve" width="1921px" height="899px" version="1.1" style="shape-rendering:geometricPrecision; text-rendering:geometricPrecision; image-rendering:optimizeQuality; fill-rule:evenodd; clip-rule:evenodd"
viewBox="0 0 1921 899"
 xmlns:xlink="http://www.w3.org/1999/xlink">
 <defs>
  <style type="text/css">
   <![CDATA[
    .fil1 {fill:black}
    .fil2 {fill:#DD3333}
    .fil0 {fill:white}
    .fil3 {fill:black;fill-rule:nonzero}
   ]]>
  </style>
 </defs>
 <g id="Слой_x0020_1">
  <metadata id="CorelCorpID_0Corel-Layer"/>
  <polygon class="fil0" points="784,622 1915,622 1858,897 727,897 "/>
  <path class="fil1" d="M1218 23c19,3 70,15 85,24 -14,-2 -31,-7 -46,-9 -125,-19 -263,-7 -383,33l-3 1c-52,18 -96,43 -145,67 -39,19 32,-23 33,-23 100,-56 195,-91 309,-104 148,-21 286,-5 433,20 25,5 50,10 75,15 53,11 104,23 156,38 28,8 57,16 86,25 6,2 88,28 33,13 -216,-58 -408,-97 -633,-100z"/>
  <path class="fil1" d="M1300 68c0,0 -50,50 -121,66 -72,17 -196,21 -315,18 -119,-3 -470,-10 -559,6 -66,13 -172,47 -213,101 -8,10 12,-7 13,-7 72,-54 172,-83 261,-85l4 0c175,-1 618,16 710,2 93,-15 205,-38 217,-62 12,-24 3,-39 3,-39z"/>
  <path class="fil1" d="M1131 448c-234,-7 -460,-17 -693,-23 -6,-1 -23,2 -12,2 33,2 68,3 102,5 17,1 35,2 52,3 52,2 103,5 155,8 35,2 70,4 104,6 18,1 35,1 53,2 17,1 35,2 52,3 35,2 70,4 105,6 28,1 56,3 84,4l3 1 -5 -17z"/>
  <path class="fil1" d="M1686 368c-36,49 -67,71 -120,99 -31,17 24,-2 29,-3 20,-8 41,-19 59,-31 67,-48 100,-121 104,-203 3,-54 -7,0 -10,15 -10,43 -36,88 -62,123z"/>
  <path class="fil1" d="M1450 222l22 26c28,-3 265,-31 272,-35 -1,-1 -160,5 -175,6l-3 0c-17,0 -35,1 -52,1 -21,1 -43,2 -64,2z"/>
  <path class="fil1" d="M1184 231c-18,0 -35,0 -52,1 -35,0 -70,1 -105,1 -203,4 -407,6 -610,10 -58,1 -55,4 1,5 241,1 482,1 723,2 8,0 16,0 24,0l19 -19z"/>
  <path class="fil1" d="M1323 205c-125,7 -184,90 -187,210 -1,14 5,33 8,5 7,-54 17,-105 54,-146 33,-36 76,-52 124,-54l5 0c111,6 164,119 196,212 6,16 5,-9 4,-14 -8,-53 -35,-121 -72,-160 -36,-38 -80,-53 -132,-53z"/>
  <path class="fil1" d="M410 434c9,-2 -12,-223 -157,-222 -143,0 -124,173 -109,194 0,0 -11,-177 111,-182 121,-4 155,209 155,210z"/>
  <path class="fil1" d="M1757 205c-1,-22 -26,-49 -42,-62 -91,-75 -269,-93 -384,-93 -30,0 25,7 30,7 129,22 295,60 396,148z"/>
  <path class="fil1" d="M367 360c0,58 -43,105 -96,105 -51,-1 -84,-42 -90,-90 0,-3 -2,-35 -5,-34 -6,3 -10,33 -10,39 -1,57 49,112 107,113l5 1c65,-2 106,-55 107,-117 -1,-41 -18,-80 -54,-102 -12,-7 9,13 10,14 19,22 25,42 26,71z"/>
  <path class="fil1" d="M1902 149c-48,18 -84,41 -127,66 -35,20 38,-34 39,-34 24,-16 56,-35 86,-34l2 0 1 1 -1 1z"/>
  <path class="fil1" d="M154 434c0,0 -60,-29 -53,-83 -13,-2 -18,-23 -18,-33 0,-14 2,-27 3,-40 0,-10 -9,32 -9,36 -2,14 -4,32 8,42 0,0 14,72 69,78z"/>
  <path class="fil1" d="M1903 162c0,0 -53,129 -44,143 -5,43 -26,78 -59,106 -60,52 -153,70 -230,72 -44,2 35,-9 39,-10 56,-10 157,-32 189,-83 74,-124 40,-177 105,-228z"/>
  <path class="fil1" d="M1381 524c42,-22 71,-67 71,-119 -1,-45 -22,-89 -60,-114 -10,-6 6,11 7,12 21,24 30,49 31,81 0,68 -54,123 -120,123 -54,-1 -98,-36 -113,-88 -4,-10 -8,-37 -6,-6 4,48 29,90 73,112 5,3 11,5 16,8 -237,17 -487,27 -724,11 -169,-12 -399,-38 -540,-136 -19,-13 -22,-14 -3,3 55,49 147,84 218,104 460,130 1200,35 1671,-50 1,0 30,-6 14,-6 -14,0 -42,5 -57,8 -147,21 -295,41 -443,54 -12,1 -23,2 -35,3z"/>
  <path class="fil2" d="M784 622l1131 0 -57 275 -1131 0 57 -275zm102 223l0 0 -35 0 -6 -147 -28 147 -33 0 37 -175 52 0 5 120 55 -120 52 0 -32 175 -33 0 31 -146 -65 146zm114 -69l0 0c0,-10 1,-21 5,-33 4,-15 10,-28 18,-40 9,-11 19,-20 32,-27 12,-6 27,-10 43,-10 22,0 39,7 53,21 13,13 20,31 20,53 0,19 -5,37 -13,54 -9,18 -21,31 -36,41 -15,9 -32,14 -50,14 -17,0 -30,-4 -42,-12 -11,-7 -19,-16 -23,-27 -5,-11 -7,-22 -7,-34zm36 0l0 0c0,12 3,22 11,30 7,8 17,12 29,12 9,0 19,-3 28,-9 9,-7 16,-17 22,-30 6,-13 9,-26 9,-38 0,-14 -4,-25 -11,-33 -8,-8 -17,-11 -29,-11 -17,0 -32,8 -43,24 -11,17 -16,35 -16,55zm220 69l0 0 -36 0 30 -146 -51 0 6 -29 138 0 -6 29 -51 0 -30 146zm80 -69l0 0c0,-10 1,-21 5,-33 4,-15 10,-28 18,-40 8,-11 19,-20 32,-27 12,-6 27,-10 43,-10 22,0 39,7 53,21 13,13 20,31 20,53 0,19 -5,37 -13,54 -9,18 -21,31 -36,41 -15,9 -32,14 -50,14 -17,0 -31,-4 -42,-12 -11,-7 -19,-16 -23,-27 -5,-11 -7,-22 -7,-34zm36 0l0 0c0,12 3,22 11,30 7,8 17,12 29,12 9,0 19,-3 28,-9 9,-7 16,-17 22,-30 6,-13 9,-26 9,-38 0,-14 -4,-25 -11,-33 -8,-8 -17,-11 -29,-11 -17,0 -32,8 -43,24 -11,17 -16,35 -16,55zm180 69l0 0 -36 0 37 -175 78 0c13,0 23,1 31,4 7,2 13,7 18,15 4,7 7,16 7,27 0,15 -5,27 -14,37 -9,9 -22,15 -40,18 4,4 9,9 13,16 8,14 17,33 27,58l-39 0c-3,-10 -9,-25 -18,-46 -5,-11 -10,-19 -16,-23 -3,-2 -9,-3 -18,-3l-15 0 -15 72zm21 -99l0 0 19 0c19,0 32,-1 38,-3 7,-2 12,-6 15,-11 4,-5 6,-10 6,-16 0,-6 -3,-11 -8,-14 -3,-2 -10,-3 -21,-3l-39 0 -10 47zm125 43l0 0 34 -2c0,11 2,18 6,22 5,6 15,9 29,9 12,0 20,-2 25,-6 6,-4 8,-9 8,-15 0,-6 -2,-10 -6,-14 -3,-2 -12,-7 -25,-13 -14,-5 -24,-10 -30,-14 -6,-4 -11,-9 -15,-16 -3,-6 -5,-14 -5,-22 0,-15 5,-27 16,-37 11,-10 26,-15 46,-15 21,0 37,5 48,15 12,10 18,22 19,39l-35 1c-1,-8 -4,-15 -9,-19 -5,-5 -13,-7 -23,-7 -10,0 -17,2 -21,5 -4,4 -7,8 -7,14 0,5 2,9 6,12 4,4 13,8 26,14 20,9 33,16 39,21 8,8 12,19 12,31 0,16 -6,29 -18,40 -13,11 -30,17 -51,17 -16,0 -29,-3 -40,-8 -11,-5 -18,-12 -23,-21 -5,-9 -7,-20 -6,-31z"/>
  <path class="fil3" d="M8 845l37 -175 130 0 -6 29 -94 0 -9 40 91 0 -6 29 -91 0 -11 48 102 0 -6 29 -137 0zm202 -175l0 0 36 0 -21 95 -5 24c0,2 -1,4 -1,7 0,7 3,12 8,16 6,4 14,6 24,6 10,0 17,-1 24,-5 6,-3 11,-8 14,-14 3,-7 7,-18 10,-33l20 -96 36 0 -20 99c-5,20 -10,34 -16,45 -5,10 -14,18 -26,25 -11,6 -26,10 -43,10 -22,0 -38,-5 -49,-16 -11,-10 -17,-23 -17,-38 0,-4 1,-7 1,-11 1,-3 2,-10 5,-22l20 -92zm176 175l0 0 -37 0 37 -175 78 0c13,0 24,1 31,4 8,2 14,7 18,15 5,7 7,16 7,27 0,15 -4,27 -13,37 -9,9 -23,15 -41,18 5,4 9,9 13,16 8,14 17,33 27,58l-38 0c-4,-10 -10,-25 -19,-46 -5,-11 -10,-19 -16,-23 -3,-2 -9,-3 -18,-3l-14 0 -15 72zm20 -99l0 0 19 0c20,0 33,-1 39,-3 6,-2 11,-6 15,-11 3,-5 5,-10 5,-16 0,-6 -2,-11 -8,-14 -3,-2 -10,-3 -20,-3l-40 0 -10 47zm131 30l0 0c0,-10 2,-21 5,-33 4,-15 10,-28 18,-40 9,-11 19,-20 32,-27 13,-6 27,-10 43,-10 22,0 39,7 53,21 13,13 20,31 20,53 0,19 -5,37 -13,54 -9,18 -21,31 -36,41 -15,9 -31,14 -50,14 -17,0 -30,-4 -41,-12 -12,-7 -19,-16 -24,-27 -5,-11 -7,-22 -7,-34zm36 0l0 0c0,12 3,22 11,30 7,8 17,12 29,12 9,0 19,-3 28,-9 9,-7 16,-17 22,-30 6,-13 9,-26 9,-38 0,-14 -4,-25 -11,-33 -8,-8 -17,-11 -29,-11 -17,0 -32,8 -43,24 -11,17 -16,35 -16,55z"/>
 </g>
</svg>
